#N canvas 565 75 395 319 10;
#X obj 22 16 dumpOSC 57120;
#X obj 22 37 route /hid;
#X obj 135 93 unpack f f f;
#X floatatom 214 112 5 0 0 0 - - -;
#X floatatom 174 112 5 0 0 0 - - -;
#X floatatom 135 112 5 0 0 0 - - -;
#X obj 136 180 unpack f f f;
#X floatatom 215 200 5 0 0 0 - - -;
#X floatatom 175 200 5 0 0 0 - - -;
#X floatatom 136 200 5 0 0 0 - - -;
#X obj 136 135 unpack f f f;
#X floatatom 215 155 5 0 0 0 - - -;
#X floatatom 175 155 5 0 0 0 - - -;
#X floatatom 136 155 5 0 0 0 - - -;
#X text 266 105 axis;
#X text 265 151 ball;
#X text 267 194 hat;
#X obj 136 224 unpack f f f;
#X floatatom 215 244 5 0 0 0 - - -;
#X floatatom 175 244 5 0 0 0 - - -;
#X floatatom 136 244 5 0 0 0 - - -;
#X text 143 287 buttondown;
#X text 283 287 buttonup;
#X obj 22 110 print run;
#X obj 22 135 print quit;
#X obj 22 57 route running quit axismotion ballmotion hatmotion button
;
#X obj 215 262 select 1;
#X text 268 234 button event;
#X obj 215 287 bng 15 250 50 0 empty empty empty 0 -6 0 10 -262144
-1 -1;
#X obj 260 287 bng 15 250 50 0 empty empty empty 0 -6 0 10 -262144
-1 -1;
#X connect 0 0 1 0;
#X connect 1 0 25 0;
#X connect 2 0 5 0;
#X connect 2 1 4 0;
#X connect 2 2 3 0;
#X connect 6 0 9 0;
#X connect 6 1 8 0;
#X connect 6 2 7 0;
#X connect 10 0 13 0;
#X connect 10 1 12 0;
#X connect 10 2 11 0;
#X connect 17 0 20 0;
#X connect 17 1 19 0;
#X connect 17 2 18 0;
#X connect 18 0 26 0;
#X connect 25 0 23 0;
#X connect 25 1 24 0;
#X connect 25 2 2 0;
#X connect 25 3 10 0;
#X connect 25 4 6 0;
#X connect 25 5 17 0;
#X connect 26 0 28 0;
#X connect 26 1 29 0;
